<?xml version="1.0" encoding="UTF-8"?>
<svg version="1.1" xmlns="http://www.w3.org/2000/svg" width="73" height="74">
<path d="M0 0 C8.2442917 6.18018332 14.25440171 12.96893255 17 23 C17.18656 25.67219771 17.2871953 28.20923164 17.25 30.875 C17.24178223 31.585354 17.23356445 32.29570801 17.22509766 33.02758789 C17.00208618 43.46236672 14.11582841 50.56683637 6.921875 58.20703125 C-1.63240164 66.26779193 -8.74366403 68.61158251 -20.33129883 68.47094727 C-30.72682368 68.06283388 -37.84006982 64.53129585 -45 57 C-52.36758046 48.90749697 -55.48501311 42.21863811 -55 31.1875 C-54.51499581 23.8083217 -52.38449963 17.59415426 -49 11 C-48.34 11 -47.68 11 -47 11 C-46.74089844 10.4121875 -46.48179688 9.824375 -46.21484375 9.21875 C-42.66566258 2.73664419 -36.04804013 -1.13694747 -29.19140625 -3.33984375 C-19.46529754 -5.3517316 -8.61423827 -5.43673583 0 0 Z " fill="#03984E" transform="translate(55,5)"/>
<path d="M0 0 C1.02104551 0.97850195 2.0206121 1.97980427 3 3 C4.99684836 3.19324339 6.99383172 3.38552384 8.9921875 3.5625 C12.37406532 4.29940723 13.96920392 6.33458015 16 9 C16 9.99 16 10.98 16 12 C16.99 12 17.98 12 19 12 C19 13.65 19 15.3 19 17 C19.639375 17.185625 20.27875 17.37125 20.9375 17.5625 C23 19 23 19 23.8125 22.4375 C24 26 24 26 23 29 C23.66 29 24.32 29 25 29 C24.125 33.875 24.125 33.875 23 35 C20.5 35.125 20.5 35.125 18 35 C17.67 34.67 17.34 34.34 17 34 C12.10437527 33.71756011 9.68749605 34.12500158 5 36 C4.67 39.63 4.34 43.26 4 47 C7.44450737 49.29633824 9.93812283 49.54016485 14 50 C13.3046875 51.9453125 13.3046875 51.9453125 12 54 C9.7578125 54.6796875 9.7578125 54.6796875 7.125 54.875 C6.26132812 54.95492187 5.39765625 55.03484375 4.5078125 55.1171875 C1.81374428 54.99129646 0.2916711 54.37500266 -2 53 C-2 53.66 -2 54.32 -2 55 C-3.485 54.505 -3.485 54.505 -5 54 C-5 53.34 -5 52.68 -5 52 C-5.66 52 -6.32 52 -7 52 C-7.33 52.99 -7.66 53.98 -8 55 C-8.350625 54.525625 -8.70125 54.05125 -9.0625 53.5625 C-11.84163543 51.32126175 -14.5144717 51.32882342 -18 51 C-15.93243723 48.2027092 -14.85559629 47.97307727 -11.3125 47.3125 C-9.6728125 47.1578125 -9.6728125 47.1578125 -8 47 C-8.29640153 41.75482729 -8.29640153 41.75482729 -11.3125 37.625 C-13.6541947 36.20909158 -15.32107145 35.3968783 -18 35 C-18.33 35.99 -18.66 36.98 -19 38 C-21.86120256 39.43060128 -23.84010585 39.38692581 -27 39 C-28.9375 36.9375 -28.9375 36.9375 -30 34 C-29.74889902 31.65639085 -29.41434251 29.32031805 -29 27 C-29.2475 26.154375 -29.495 25.30875 -29.75 24.4375 C-29.8325 23.633125 -29.915 22.82875 -30 22 C-28.76368168 20.53593884 -27.51960053 19.07601979 -26.203125 17.68359375 C-24.74194068 15.63888452 -24.57281812 14.23621416 -24.375 11.75 C-24.25125 10.5125 -24.1275 9.275 -24 8 C-19.8204355 5.21362367 -17.85331323 6.20437488 -13 7 C-12.731875 6.21625 -12.46375 5.4325 -12.1875 4.625 C-9.73533927 -0.79556582 -5.25692158 -0.75735311 0 0 Z " fill="#ABDFC5" transform="translate(39,9)"/>
<path d="M0 0 C7.42857143 -0.28571429 7.42857143 -0.28571429 11 2 C11 2.66 11 3.32 11 4 C9.68 4 8.36 4 7 4 C7 5.98 7 7.96 7 10 C8.98 8.35 10.96 6.7 13 5 C15 8 15 8 15 12 C12 14.25 12 14.25 9 16 C10.98 16 12.96 16 15 16 C15 16.99 15 17.98 15 19 C13.35 19.66 11.7 20.32 10 21 C9.67 24.63 9.34 28.26 9 32 C12.44450737 34.29633824 14.93812283 34.54016485 19 35 C18.3046875 36.9453125 18.3046875 36.9453125 17 39 C14.7578125 39.6796875 14.7578125 39.6796875 12.125 39.875 C11.26132812 39.95492187 10.39765625 40.03484375 9.5078125 40.1171875 C6.81374428 39.99129646 5.2916711 39.37500266 3 38 C3 38.66 3 39.32 3 40 C2.01 39.67 1.02 39.34 0 39 C0 38.34 0 37.68 0 37 C-0.66 37 -1.32 37 -2 37 C-2.33 37.99 -2.66 38.98 -3 40 C-3.350625 39.525625 -3.70125 39.05125 -4.0625 38.5625 C-6.84163543 36.32126175 -9.5144717 36.32882342 -13 36 C-10.93243723 33.2027092 -9.85559629 32.97307727 -6.3125 32.3125 C-4.6728125 32.1578125 -4.6728125 32.1578125 -3 32 C-3.08580414 27.38665976 -3.08580414 27.38665976 -5.3671875 23.5625 C-5.90601563 23.15 -6.44484375 22.7375 -7 22.3125 C-10 20 -10 20 -10.875 17.6875 C-10.936875 16.8521875 -10.936875 16.8521875 -11 16 C-6.25 16.875 -6.25 16.875 -4 18 C-4 17.34 -4 16.68 -4 16 C-6.31 15.34 -8.62 14.68 -11 14 C-10.67 12.68 -10.34 11.36 -10 10 C-8.906875 10.04125 -7.81375 10.0825 -6.6875 10.125 C-2.91107771 10.32074666 -2.91107771 10.32074666 0 8 C0.72382467 5.94074861 0.72382467 5.94074861 1 4 C0.01 4 -0.98 4 -2 4 C-1.34 2.68 -0.68 1.36 0 0 Z " fill="#BFE7D2" transform="translate(34,24)"/>
<path d="M0 0 C0.78801086 2.5610353 0.98372001 4.40699986 0.875 7.125 C0.91625 8.07375 0.9575 9.0225 1 10 C4.44450737 12.29633824 6.93812283 12.54016485 11 13 C10.3046875 14.9453125 10.3046875 14.9453125 9 17 C6.7578125 17.6796875 6.7578125 17.6796875 4.125 17.875 C2.82949219 17.99488281 2.82949219 17.99488281 1.5078125 18.1171875 C-1.18625572 17.99129646 -2.7083289 17.37500266 -5 16 C-5 16.66 -5 17.32 -5 18 C-5.99 17.67 -6.98 17.34 -8 17 C-8 16.34 -8 15.68 -8 15 C-8.66 15 -9.32 15 -10 15 C-10.33 15.99 -10.66 16.98 -11 18 C-11.350625 17.525625 -11.70125 17.05125 -12.0625 16.5625 C-14.84163543 14.32126175 -17.5144717 14.32882342 -21 14 C-18.93243723 11.2027092 -17.85559629 10.97307727 -14.3125 10.3125 C-13.219375 10.209375 -12.12625 10.10625 -11 10 C-10.855625 9.195625 -10.71125 8.39125 -10.5625 7.5625 C-10 5 -10 5 -9 4 C-6.66702567 3.95907063 -4.33294775 3.95758277 -2 4 C-1.34 2.68 -0.68 1.36 0 0 Z " fill="#A6DDC1" transform="translate(42,46)"/>
<path d="M0 0 C0 0.33 0 0.66 0 1 C-1.98 1 -3.96 1 -6 1 C-6.185625 1.70125 -6.37125 2.4025 -6.5625 3.125 C-8.29741498 6.59482995 -10.43266389 8.29725491 -13.44140625 10.66796875 C-15.13049223 11.93649295 -15.13049223 11.93649295 -16 14 C-17.32 13.34 -18.64 12.68 -20 12 C-19.98726673 8.25005127 -19.82203603 4.66671335 -19 1 C-13.28742014 -3.76048322 -6.51848348 -2.54379843 0 0 Z " fill="#06A453" transform="translate(62,44)"/>
<path d="M0 0 C-0.61875 0.061875 -1.2375 0.12375 -1.875 0.1875 C-2.926875 0.5896875 -2.926875 0.5896875 -4 1 C-4.2475 1.721875 -4.495 2.44375 -4.75 3.1875 C-6.64739335 7.45663503 -10.20660758 9.43284373 -14 12 C-13.98700079 8.89968863 -13.80897017 6.0017051 -13 3 C-8.85340412 -0.25803962 -5.14884761 -0.30893086 0 0 Z " fill="#16AA5C" transform="translate(56,42)"/>
<path d="M0 0 C3.55034905 1.08684155 4.96541928 1.87253587 7.0625 4.9375 C7.3125 8.6875 7.3125 8.6875 7.0625 11.9375 C6.7325 10.6175 6.4025 9.2975 6.0625 7.9375 C5.464375 7.834375 4.86625 7.73125 4.25 7.625 C2.0625 6.9375 2.0625 6.9375 0.5625 5.3125 C-0.18 4.631875 -0.18 4.631875 -0.9375 3.9375 C-3.10049211 4.16507731 -3.10049211 4.16507731 -4.9375 4.9375 C-5.2675 4.2775 -5.5975 3.6175 -5.9375 2.9375 C-4.02999883 0.28819281 -3.34264721 -0.07112015 0 0 Z " fill="#20AC63" transform="translate(23.9375,44.0625)"/>
<path d="M0 0 C1.5 1.25 1.5 1.25 3 3 C3 4.32 3 5.64 3 7 C0.5 8.75 0.5 8.75 -2 10 C-2 9.34 -2 8.68 -2 8 C-2.66 7.67 -3.32 7.34 -4 7 C-4.33 6.34 -4.66 5.68 -5 5 C-3.35 3.35 -1.7 1.7 0 0 Z " fill="#BAE5CE" transform="translate(46,29)"/>
<path d="M0 0 C2.375 -0.125 2.375 -0.125 5 0 C5.66 0.66 6.32 1.32 7 2 C6.625 4.125 6.625 4.125 6 6 C3.69 5.34 1.38 4.68 -1 4 C-0.67 2.68 -0.34 1.36 0 0 Z " fill="#BDE6D0" transform="translate(24,34)"/>
<path d="M0 0 C-0.66 1.65 -1.32 3.3 -2 5 C-2.66 5 -3.32 5 -4 5 C-4.33 5.66 -4.66 6.32 -5 7 C-5.33 5.35 -5.66 3.7 -6 2 C-3 0 -3 0 0 0 Z " fill="#26AD67" transform="translate(49,43)"/>
<path d="M0 0 C2.31 0.33 4.62 0.66 7 1 C7.33 2.32 7.66 3.64 8 5 C5.36 4.01 2.72 3.02 0 2 C0 1.34 0 0.68 0 0 Z " fill="#55BC87" transform="translate(23,38)"/>
<path d="" fill="#000000" transform="translate(0,0)"/>
</svg>
