<?xml version="1.0" encoding="UTF-8"?>
<svg version="1.1" xmlns="http://www.w3.org/2000/svg" width="75" height="74">
<path d="M0 0 C7.34173727 5.23280017 12.7894157 13.073612 14.91015625 21.84765625 C16.55102997 32.40978514 15.2606962 41.99666381 9.6171875 51.203125 C3.42036891 59.58262868 -5.36616865 65.46454409 -15.6875 67.4375 C-27.20619569 68.62605331 -37.10588291 66.05604037 -46.55078125 59.32421875 C-54.41819116 52.37731018 -58.88406008 43.91254227 -59.99609375 33.56640625 C-60.47427178 22.42340917 -57.25674432 13.06623694 -49.95703125 4.62890625 C-35.68288503 -9.15387521 -16.63394003 -9.8097595 0 0 Z " fill="#FCCB57" transform="translate(59.6875,6.5625)"/>
<path d="M0 0 C0.66 0.33 1.32 0.66 2 1 C1.67 1.33 1.34 1.66 1 2 C0.74994614 4.95817107 0.74994614 4.95817107 1 8 C1.66 8.66 2.32 9.32 3 10 C3.39764263 11.98821313 3.73775349 13.98944339 4 16 C4.99 16 5.98 16 7 16 C7.33 14.02 7.66 12.04 8 10 C12.51617599 9.92345464 16.59085217 9.89771304 21 11 C20.67 11.66 20.34 12.32 20 13 C18.7934375 13.3403125 18.7934375 13.3403125 17.5625 13.6875 C14.63277289 14.82347841 14.63277289 14.82347841 13.75 18.375 C13.5025 19.57125 13.255 20.7675 13 22 C12.79375 22.804375 12.5875 23.60875 12.375 24.4375 C12.189375 25.2109375 12.189375 25.2109375 12 26 C12.99 25.67 13.98 25.34 15 25 C15.33 24.34 15.66 23.68 16 23 C18.66710654 23.15240609 20.4505871 23.49364919 22.4453125 25.33203125 C26 29.50625 26 29.50625 26 32 C23.69 31.67 21.38 31.34 19 31 C18.34 31.99 17.68 32.98 17 34 C13.875 34.6875 13.875 34.6875 11 35 C10.67 35.99 10.34 36.98 10 38 C12.31 38.33 14.62 38.66 17 39 C17.05416188 40.60379341 17.09286638 42.20811406 17.125 43.8125 C17.14820313 44.70582031 17.17140625 45.59914062 17.1953125 46.51953125 C17 49 17 49 15 52 C14.34 50.35 13.68 48.7 13 47 C10.69 46.67 8.38 46.34 6 46 C5.505 44.02 5.505 44.02 5 42 C4.01 42.33 3.02 42.66 2 43 C2 44.32 2 45.64 2 47 C2.99 47.495 2.99 47.495 4 48 C4 48.99 4 49.98 4 51 C3.34 51 2.68 51 2 51 C1.7525 51.598125 1.505 52.19625 1.25 52.8125 C-0.18072525 55.31626919 -1.5691582 56.48072388 -4 58 C-4.66 58 -5.32 58 -6 58 C-5.67447917 55.98177083 -5.34895833 53.96354167 -5.0234375 51.9453125 C-5.01570313 51.30335937 -5.00796875 50.66140625 -5 50 C-5.66 49.34 -6.32 48.68 -7 48 C-7.125 44.875 -7.125 44.875 -7 42 C-8.65 42 -10.3 42 -12 42 C-12 43.98 -12 45.96 -12 48 C-20.57142857 48.28571429 -20.57142857 48.28571429 -24 46 C-22.02 45.34 -20.04 44.68 -18 44 C-18.04125 43.0925 -18.0825 42.185 -18.125 41.25 C-18.00468444 38.1217954 -17.6085292 36.61385994 -16 34 C-17.32 33.67 -18.64 33.34 -20 33 C-20 33.66 -20 34.32 -20 35 C-22.125 35.4375 -22.125 35.4375 -25 35 C-27.33462754 32.916878 -29.27975181 30.61288556 -31 28 C-31 27.34 -31 26.68 -31 26 C-28.36 26.33 -25.72 26.66 -23 27 C-22.67 26.34 -22.34 25.68 -22 25 C-18.9375 24.375 -18.9375 24.375 -16 24 C-15.67 22.68 -15.34 21.36 -15 20 C-17.31 19.67 -19.62 19.34 -22 19 C-21.67 15.37 -21.34 11.74 -21 8 C-20.34 8 -19.68 8 -19 8 C-18.814375 8.639375 -18.62875 9.27875 -18.4375 9.9375 C-17.05753944 12.42126213 -17.05753944 12.42126213 -13.375 12.75 C-12.26125 12.8325 -11.1475 12.915 -10 13 C-10 13.99 -10 14.98 -10 16 C-8.68 15.34 -7.36 14.68 -6 14 C-6 13.01 -6 12.02 -6 11 C-6.66 10.67 -7.32 10.34 -8 10 C-7.44449305 6.40094092 -6.25112752 5.00090201 -3.4375 2.75 C-2.47650391 1.96882812 -2.47650391 1.96882812 -1.49609375 1.171875 C-1.00238281 0.78515625 -0.50867188 0.3984375 0 0 Z " fill="#FEF0C2" transform="translate(39,8)"/>
<path d="M0 0 C3.11141288 1.6437653 5.28893717 3.03036886 7.375 5.875 C8.69601084 10.36643685 8.48383625 13.10144696 6.25 17.25 C3.08484 21.11852888 1.54156269 21.8001678 -3.375 22.4375 C-8.1853299 21.85694294 -9.61392593 20.38607407 -13 17 C-14.76834391 13.46331217 -14.77838821 9.84047738 -14 6 C-10.48876017 0.86337912 -6.17930341 -1.12350971 0 0 Z " fill="#FFF8E2" transform="translate(40,26)"/>
<path d="M0 0 C4.51617599 -0.07654536 8.59085217 -0.10228696 13 1 C12.67 1.66 12.34 2.32 12 3 C11.195625 3.226875 10.39125 3.45375 9.5625 3.6875 C6.59146286 4.84174011 6.59146286 4.84174011 5.6875 8.625 C5.460625 9.73875 5.23375 10.8525 5 12 C3 11 3 11 1 8 C0.34 7.34 -0.32 6.68 -1 6 C-0.625 2.875 -0.625 2.875 0 0 Z " fill="#FEF0C0" transform="translate(47,18)"/>
<path d="M0 0 C2.31 0.33 4.62 0.66 7 1 C6.67 2.65 6.34 4.3 6 6 C4.35 6 2.7 6 1 6 C1.99 5.67 2.98 5.34 4 5 C4 3.68 4 2.36 4 1 C2.68 0.67 1.36 0.34 0 0 Z " fill="#FEDF72" transform="translate(17,27)"/>
<path d="M0 0 C1.65 0 3.3 0 5 0 C5 1.98 5 3.96 5 6 C4.67 5.01 4.34 4.02 4 3 C3.01 3 2.02 3 1 3 C0.67 3.66 0.34 4.32 0 5 C0 3.35 0 1.7 0 0 Z " fill="#FFE073" transform="translate(27,50)"/>
<path d="M0 0 C0.33 0 0.66 0 1 0 C1 1.65 1 3.3 1 5 C-0.32 5.33 -1.64 5.66 -3 6 C-3.33 4.35 -3.66 2.7 -4 1 C-2.02 1.99 -2.02 1.99 0 3 C0 2.01 0 1.02 0 0 Z " fill="#FFE179" transform="translate(46,19)"/>
<path d="M0 0 C0.99 0 1.98 0 3 0 C3.33 0.99 3.66 1.98 4 3 C2.68 3.99 1.36 4.98 0 6 C-0.38218767 4.34385343 -0.71395102 2.67542976 -1 1 C-0.67 0.67 -0.34 0.34 0 0 Z " fill="#FFE073" transform="translate(41,50)"/>
<path d="M0 0 C1.65 0 3.3 0 5 0 C3.68 1.65 2.36 3.3 1 5 C0.34 4.67 -0.32 4.34 -1 4 C-0.67 2.68 -0.34 1.36 0 0 Z " fill="#FFE073" transform="translate(50,42)"/>
</svg>
