<?xml version="1.0" encoding="UTF-8"?>
<svg version="1.1" xmlns="http://www.w3.org/2000/svg" width="75" height="75">
<path d="M0 0 C8.25212533 6.48381276 14.59867128 14.58014567 16.625 25.0625 C17.56474695 36.29324628 15.7032708 46.05379171 8.625 55.0625 C1.55856224 62.6725099 -6.63582244 68.4149145 -17.22265625 69.30078125 C-28.94290571 69.57135809 -38.29564348 66.70761677 -47 58.625 C-55.42104466 49.53913602 -58.7570986 40.84896448 -58.66015625 28.5234375 C-57.70043956 16.87536919 -51.48398108 8.66239932 -43.125 1 C-29.61786426 -8.51639109 -14.10132538 -8.09520531 0 0 Z " fill="#0F0F0F" transform="translate(58.375,5.9375)"/>
<path d="M0 0 C0.73412109 -0.02449219 1.46824219 -0.04898437 2.22460938 -0.07421875 C7.82639534 -0.10404192 11.03743751 1.26676801 15.6875 4.375 C15.3575 5.365 15.0275 6.355 14.6875 7.375 C15.3475 7.375 16.0075 7.375 16.6875 7.375 C19.32505002 7.72772625 20.38899219 8.02338837 22.13671875 10.08203125 C22.54535156 10.77683594 22.95398437 11.47164062 23.375 12.1875 C23.79136719 12.87457031 24.20773438 13.56164063 24.63671875 14.26953125 C26.99470087 18.99426123 27.5110172 24.17535071 26.6875 29.375 C22.93434813 33.94915384 19.80525254 33.84556187 13.6875 35.375 C13.3575 40.985 13.0275 46.595 12.6875 52.375 C11.3675 52.375 10.0475 52.375 8.6875 52.375 C8.56375 51.240625 8.44 50.10625 8.3125 48.9375 C8.10625 47.761875 7.9 46.58625 7.6875 45.375 C7.0275 45.045 6.3675 44.715 5.6875 44.375 C5.3575 46.025 5.0275 47.675 4.6875 49.375 C4.0275 49.375 3.3675 49.375 2.6875 49.375 C2.6875 47.725 2.6875 46.075 2.6875 44.375 C2.0275 44.375 1.3675 44.375 0.6875 44.375 C0.3575 46.685 0.0275 48.995 -0.3125 51.375 C-1.3025 51.375 -2.2925 51.375 -3.3125 51.375 C-3.6425 49.065 -3.9725 46.755 -4.3125 44.375 C-4.9725 44.375 -5.6325 44.375 -6.3125 44.375 C-6.3125 47.015 -6.3125 49.655 -6.3125 52.375 C-7.6325 52.045 -8.9525 51.715 -10.3125 51.375 C-10.6425 46.095 -10.9725 40.815 -11.3125 35.375 C-12.715 35.148125 -14.1175 34.92125 -15.5625 34.6875 C-18.78931449 33.94558675 -20.24012988 33.43324912 -22.875 31.3125 C-25.49940633 25.94958271 -24.96233395 20.7109176 -23.125 15.125 C-21.56869865 11.4195206 -19.43780389 8.93935191 -16.3125 6.375 C-15.6525 6.375 -14.9925 6.375 -14.3125 6.375 C-13.9825 8.025 -13.6525 9.675 -13.3125 11.375 C-11.9925 11.375 -10.6725 11.375 -9.3125 11.375 C-9.8075 11.00375 -10.3025 10.6325 -10.8125 10.25 C-12.91005514 7.62805607 -12.52993835 5.63657528 -12.3125 2.375 C-8.4684472 -0.16065488 -4.44281643 0.00767989 0 0 Z " fill="#BCBCBC" transform="translate(36.3125,10.625)"/>
<path d="M0 0 C6.17853615 4.98596449 10.46857177 11.12817264 12 19 C12.67696279 27.2900197 12.21670162 33.77136865 8 41 C7.443125 42.051875 6.88625 43.10375 6.3125 44.1875 C1.13962647 50.47883268 -6.08334861 54.29749433 -14 56 C-22.68329703 56.82698067 -31.19929799 54.59168832 -38 49 C-44.92080616 42.44424735 -49.07362248 35.21788765 -49.5 25.5625 C-49.00088552 15.13981534 -45.27414292 8.16608621 -37.66015625 1.1015625 C-26.66556006 -7.58432994 -11.62730722 -8.06126483 0 0 Z M-32 1 C-32.23428313 5.7897321 -32.23428313 5.7897321 -30 10 C-30.99 10 -31.98 10 -33 10 C-33.33 8.35 -33.66 6.7 -34 5 C-38.78204079 6.87865888 -41.16062617 10.15337758 -43.25 14.75 C-44.49641846 20.15114668 -45.04638341 24.86173824 -42.5625 29.9375 C-38.88343372 32.89869969 -35.64131813 33.24919854 -31 34 C-30.67 39.28 -30.34 44.56 -30 50 C-28.68 50.33 -27.36 50.66 -26 51 C-26 48.36 -26 45.72 -26 43 C-25.34 43 -24.68 43 -24 43 C-23.67 45.31 -23.34 47.62 -23 50 C-22.01 50 -21.02 50 -20 50 C-19.67 47.69 -19.34 45.38 -19 43 C-18.34 43 -17.68 43 -17 43 C-17 44.65 -17 46.3 -17 48 C-15.515 47.505 -15.515 47.505 -14 47 C-14 45.68 -14 44.36 -14 43 C-13.34 43.33 -12.68 43.66 -12 44 C-11.59270772 46.32156597 -11.25561323 48.6568787 -11 51 C-9.68 51 -8.36 51 -7 51 C-6.67 45.39 -6.34 39.78 -6 34 C-3.49348958 33.31640625 -0.98697917 32.6328125 1.51953125 31.94921875 C4.12076265 30.95378689 5.36611572 30.23863365 7 28 C8.50277193 21.3796804 6.12767768 14.79509511 3 9 C1.69600353 7.15821137 1.69600353 7.15821137 0 6 C-3.64541845 6.23477199 -3.64541845 6.23477199 -7 7 C-6.01 6.34 -5.02 5.68 -4 5 C-4.71974739 1.81234828 -4.71974739 1.81234828 -7.5234375 0.33203125 C-11.74610726 -1.28586806 -15.15499414 -1.40950534 -19.625 -1.3125 C-20.37523438 -1.31572266 -21.12546875 -1.31894531 -21.8984375 -1.32226562 C-25.72889078 -1.28491191 -28.75610633 -1.15401405 -32 1 Z " fill="#1C1C1C" transform="translate(56,12)"/>
<path d="M0 0 C5.16643002 4.3926035 8.98948815 8.57038417 11.22265625 15.01171875 C11.65578125 16.24921875 12.08890625 17.48671875 12.53515625 18.76171875 C14.33112121 27.08846536 12.92991239 35.31117761 8.80078125 42.69140625 C3.52905463 50.44241025 -3.44673418 56.17952633 -12.77734375 58.01171875 C-23.41538408 58.89101477 -31.75147671 57.60637354 -40.08984375 50.69921875 C-46.8804609 44.27899889 -50.77682543 37.75859834 -51.734375 28.2734375 C-51.92172829 18.41184138 -48.53672115 10.13794471 -41.8515625 2.9375 C-30.10004429 -7.94691589 -13.1995796 -9.44948807 0 0 Z M-40.62109375 4.66015625 C-47.53432208 12.1995828 -50.46757147 18.90950834 -50.12109375 29.24609375 C-48.96311281 38.5625768 -44.11959025 45.80429816 -36.828125 51.546875 C-30.25763975 55.97453009 -22.72798907 58.15356675 -14.77734375 57.01171875 C-4.49861806 54.26379353 2.14893264 50.29175026 7.9609375 41.390625 C11.98203768 33.80904602 12.51903841 25.54657192 10.5703125 17.2265625 C7.62725941 9.05422196 2.02057576 1.98424378 -5.77734375 -1.98828125 C-19.43496537 -6.18364108 -29.97065024 -5.67077395 -40.62109375 4.66015625 Z " fill="#100F0F" transform="translate(56.77734375,10.98828125)"/>
<path d="M0 0 C4.66716563 1.58350262 5.92692531 3.00625362 8.5 7.1875 C8.125 9.890625 8.125 9.890625 7.5 12.1875 C5.20858714 12.24134521 2.91681812 12.28022087 0.625 12.3125 C-1.28925781 12.34730469 -1.28925781 12.34730469 -3.2421875 12.3828125 C-6.5 12.1875 -6.5 12.1875 -8.5 10.1875 C-8.9375 7.875 -8.9375 7.875 -8.5 5.1875 C-5.84663465 1.48886951 -4.60712442 0.24681024 0 0 Z " fill="#4F4F4F" transform="translate(24.5,27.8125)"/>
<path d="M0 0 C2.8125 2.125 2.8125 2.125 5 5 C5.375 8.25 5.375 8.25 5 11 C4 12 4 12 0.62109375 12.09765625 C-0.77347077 12.09098369 -2.16801743 12.07902532 -3.5625 12.0625 C-4.62887695 12.05573242 -4.62887695 12.05573242 -5.71679688 12.04882812 C-7.47790013 12.03700864 -9.23896036 12.01907263 -11 12 C-11.234375 6.3515625 -11.234375 6.3515625 -9.125 3.1875 C-6.13048831 0.10491444 -4.26498047 -0.59511355 0 0 Z " fill="#4E4E4E" transform="translate(54,28)"/>
<path d="M0 0 C1.485 0.99 1.485 0.99 3 2 C4.52774519 2.41007897 6.0720723 2.76152541 7.625 3.0625 C11.89939638 3.89939638 11.89939638 3.89939638 13 5 C13.07313567 7.53049402 13.09247527 10.03304837 13.0625 12.5625 C13.05798828 13.27341797 13.05347656 13.98433594 13.04882812 14.71679688 C13.03700864 16.47790013 13.01907263 18.23896036 13 20 C6.43605056 13.45800357 2.45148322 8.96884107 0 0 Z " fill="#2A2A2A" transform="translate(13,41)"/>
<path d="M0 0 C0.66 0.33 1.32 0.66 2 1 C-0.59810673 10.09337355 -6.35777217 16.59452178 -14 22 C-17.3125 23.25 -17.3125 23.25 -20 24 C-18.42077898 20.84155795 -17.23034776 19.15182012 -14.25 17.1875 C-7.78394482 12.83534747 -3.56240421 6.83981608 0 0 Z " fill="#313131" transform="translate(71,48)"/>
<path d="M0 0 C3.39265269 1.13088423 3.9348413 1.94297711 6.0625 4.6875 C9.54119979 8.8455167 13.30541075 11.23746207 18.05859375 13.7734375 C18.69925781 14.17820312 19.33992188 14.58296875 20 15 C20 15.66 20 16.32 20 17 C21.65 17.33 23.3 17.66 25 18 C22.15950804 19.16480606 21.08832016 19.03340859 18.16015625 17.92578125 C16.62681641 17.12720703 16.62681641 17.12720703 15.0625 16.3125 C14.04285156 15.79300781 13.02320313 15.27351563 11.97265625 14.73828125 C6.09662414 11.30223094 2.74069371 7.55760209 -1 2 C-0.67 1.34 -0.34 0.68 0 0 Z " fill="#424242" transform="translate(6,55)"/>
<path d="M0 0 C-4.38207247 7.39923713 -4.38207247 7.39923713 -7.25 10.1875 C-9.37905878 12.3925966 -9.66659957 13.99939609 -10 17 C-10.33 17 -10.66 17 -11 17 C-11 12.05 -11 7.1 -11 2 C-2.25 -1.125 -2.25 -1.125 0 0 Z " fill="#2E2E2E" transform="translate(60,44)"/>
<path d="M0 0 C0.66 1.32 1.32 2.64 2 4 C2.33 3.01 2.66 2.02 3 1 C3.66 1 4.32 1 5 1 C6.28317892 4.84953676 6.06643637 7.94738135 6 12 C3.36 12 0.72 12 -2 12 C-2.28571429 3.42857143 -2.28571429 3.42857143 0 0 Z " fill="#656565" transform="translate(35,39)"/>
<path d="M0 0 C3.375 0.3125 3.375 0.3125 7 1 C9.29013653 4.4352048 9.17842973 5.985331 9 10 C7.34385343 10.38218767 5.67542976 10.71395102 4 11 C2.08316291 9.08316291 2.57249695 5.63442708 2.37890625 3.03125 C2.25386719 2.3609375 2.12882812 1.690625 2 1 C1.34 0.67 0.68 0.34 0 0 Z " fill="#3A3A3A" transform="translate(50,29)"/>
<path d="M0 0 C-0.309375 0.53625 -0.61875 1.0725 -0.9375 1.625 C-2.17827439 4.3984957 -2.5909675 7.00042837 -3 10 C-4.66611905 10.042721 -6.33382885 10.04063832 -8 10 C-9 9 -9 9 -9.3125 6.6875 C-9 4 -9 4 -7.3125 1.6875 C-4.60883753 -0.28544288 -3.27034459 -0.36337162 0 0 Z " fill="#3B3B3B" transform="translate(25,29)"/>
<path d="M0 0 C7.875 0.875 7.875 0.875 9 2 C9.07313567 4.53049402 9.09247527 7.03304837 9.0625 9.5625 C9.05798828 10.27341797 9.05347656 10.98433594 9.04882812 11.71679688 C9.03700864 13.47790013 9.01907263 15.23896036 9 17 C8.67 17 8.34 17 8 17 C7.97421875 16.39671875 7.9484375 15.7934375 7.921875 15.171875 C7.64110955 9.94728665 7.64110955 9.94728665 4.9375 5.625 C4.298125 5.08875 3.65875 4.5525 3 4 C3 3.01 3 2.02 3 1 C2.01 1.33 1.02 1.66 0 2 C0 1.34 0 0.68 0 0 Z " fill="#414141" transform="translate(17,44)"/>
<path d="M0 0 C0.33 0 0.66 0 1 0 C1 3.96 1 7.92 1 12 C1.99 12.33 2.98 12.66 4 13 C4.80078125 14.99609375 4.80078125 14.99609375 5.3125 17.4375 C5.58513672 18.64212891 5.58513672 18.64212891 5.86328125 19.87109375 C5.93095703 20.92490234 5.93095703 20.92490234 6 22 C5.34 22.66 4.68 23.32 4 24 C0.3328356 15.83073644 -0.51007183 8.91208829 0 0 Z " fill="#5C5C5C" transform="translate(0,31)"/>
<path d="M0 0 C1 2 1 2 0 5.125 C-2.21608744 10.03131451 -6.1089737 15.55448685 -11 18 C-10.67 16.68 -10.34 15.36 -10 14 C-9.34 14 -8.68 14 -8 14 C-7.73445313 13.44828125 -7.46890625 12.8965625 -7.1953125 12.328125 C-5.86117291 9.72960475 -4.38741369 7.24877045 -2.875 4.75 C-2.33617187 3.85796875 -1.79734375 2.9659375 -1.2421875 2.046875 C-0.62730469 1.03367188 -0.62730469 1.03367188 0 0 Z " fill="#2A2A2A" transform="translate(61,41)"/>
<path d="M0 0 C-4 6.57142857 -4 6.57142857 -8 8 C-8 5.69 -8 3.38 -8 1 C-4.93251126 -0.86240388 -3.40254489 -1.2151946 0 0 Z " fill="#3E3E3E" transform="translate(57,45)"/>
<path d="M0 0 C4.39044607 4.39044607 4.125 10.05679858 4.125 15.9375 C4.09310129 17.95851112 4.05469084 19.9794772 4 22 C3.67 22 3.34 22 3 22 C3 18.04 3 14.08 3 10 C2.34 10 1.68 10 1 10 C0.63720544 8.71073008 0.28503302 7.41846728 -0.0625 6.125 C-0.35833984 5.04605469 -0.35833984 5.04605469 -0.66015625 3.9453125 C-1 2 -1 2 0 0 Z " fill="#3F3F3F" transform="translate(71,22)"/>
<path d="M0 0 C0.33 0 0.66 0 1 0 C1 1.65 1 3.3 1 5 C1.66 4.67 2.32 4.34 3 4 C3.65213292 1.97536745 3.65213292 1.97536745 4 0 C4.99 0.33 5.98 0.66 7 1 C7 3.31 7 5.62 7 8 C7.66 8.33 8.32 8.66 9 9 C8.01 9 7.02 9 6 9 C6 8.01 6 7.02 6 6 C5.38125 6.185625 4.7625 6.37125 4.125 6.5625 C2 7 2 7 0 6 C0 4.02 0 2.04 0 0 Z " fill="#4F4F4F" transform="translate(38,55)"/>
<path d="M0 0 C0.66 0.33 1.32 0.66 2 1 C1.27683594 1.68835938 1.27683594 1.68835938 0.5390625 2.390625 C-0.09257812 3.00421875 -0.72421875 3.6178125 -1.375 4.25 C-2.00148438 4.85328125 -2.62796875 5.4565625 -3.2734375 6.078125 C-4.97858529 7.97616281 -5.88404107 9.7296008 -7 12 C-9.125 13.25 -9.125 13.25 -11 14 C-8.8527917 7.73730913 -5.24125182 3.93093886 0 0 Z " fill="#252525" transform="translate(16,6)"/>
<path d="M0 0 C0.66 0 1.32 0 2 0 C3.28317892 3.84953676 3.06643637 6.94738135 3 11 C1.68 10.34 0.36 9.68 -1 9 C-0.67 6.03 -0.34 3.06 0 0 Z " fill="#5A5A5A" transform="translate(38,40)"/>
<path d="M0 0 C0.99 0.99 1.98 1.98 3 3 C1.03533587 4.06775224 -0.96855359 5.06553465 -3 6 C-3.66 5.67 -4.32 5.34 -5 5 C-3.35 3.35 -1.7 1.7 0 0 Z " fill="#444444" transform="translate(56,66)"/>
<path d="M0 0 C0.66 0 1.32 0 2 0 C2.33 2.31 2.66 4.62 3 7 C2.01 7.33 1.02 7.66 0 8 C0 5.36 0 2.72 0 0 Z " fill="#3C3C3C" transform="translate(30,55)"/>
<path d="M0 0 C0.99 0 1.98 0 3 0 C2.625 2.4375 2.625 2.4375 2 5 C1.01 5.495 1.01 5.495 0 6 C-0.66 6.99 -1.32 7.98 -2 9 C-1.125 2.25 -1.125 2.25 0 0 Z " fill="#292929" transform="translate(3,22)"/>
<path d="M0 0 C0 3 0 3 -1.53125 4.60546875 C-2.1809375 5.12753906 -2.830625 5.64960937 -3.5 6.1875 C-4.1496875 6.71730469 -4.799375 7.24710938 -5.46875 7.79296875 C-5.9740625 8.19128906 -6.479375 8.58960938 -7 9 C-6.19095897 4.20719998 -3.74015409 2.86479887 0 0 Z " fill="#242424" transform="translate(57,50)"/>
<path d="M0 0 C0.33 0 0.66 0 1 0 C1.433125 1.3921875 1.433125 1.3921875 1.875 2.8125 C2.8875 6.09791667 2.8875 6.09791667 5 9 C3.35 8.67 1.7 8.34 0 8 C-0.98120464 4.94736336 -0.98120464 3.05263664 0 0 Z " fill="#4A4A4A" transform="translate(23,14)"/>
<path d="M0 0 C0.66 0 1.32 0 2 0 C2.625 2.375 2.625 2.375 3 5 C2.34 5.66 1.68 6.32 1 7 C0.34 5.02 -0.32 3.04 -1 1 C-0.67 0.67 -0.34 0.34 0 0 Z " fill="#363636" transform="translate(3,48)"/>
</svg>
