<?xml version="1.0" encoding="UTF-8"?>
<svg version="1.1" xmlns="http://www.w3.org/2000/svg" width="75" height="74">
<path d="M0 0 C7.34173727 5.23280017 12.7894157 13.073612 14.91015625 21.84765625 C16.55102997 32.40978514 15.2606962 41.99666381 9.6171875 51.203125 C3.42036891 59.58262868 -5.36616865 65.46454409 -15.6875 67.4375 C-27.20619569 68.62605331 -37.10588291 66.05604037 -46.55078125 59.32421875 C-54.41819116 52.37731018 -58.88406008 43.91254227 -59.99609375 33.56640625 C-60.47427178 22.42340917 -57.25674432 13.06623694 -49.95703125 4.62890625 C-35.68288503 -9.15387521 -16.63394003 -9.8097595 0 0 Z " fill="#057498" transform="translate(59.6875,6.5625)"/>
<path d="M0 0 C0.00386719 1.01707031 0.00386719 1.01707031 0.0078125 2.0546875 C0.33306396 9.88240598 2.6089255 14.62925642 7 21 C7.94447071 22.49562072 8.88256663 23.99529731 9.8125 25.5 C10.21082031 26.1290625 10.60914062 26.758125 11.01953125 27.40625 C13.56324819 31.54105681 13.65401427 35.23177968 13 40 C11.23575246 44.70740815 8.62751471 48.00481662 4.25 50.5 C-0.14766578 52.3586361 -4.29584478 52.84814695 -9 52 C-12.25 50.4375 -12.25 50.4375 -15 48 C-15.48726562 47.57203125 -15.97453125 47.1440625 -16.4765625 46.703125 C-20.96744808 41.83590823 -20.77000453 36.13791685 -20.55078125 29.79296875 C-19.70225981 23.9496048 -17.36855963 19.77276558 -14 15 C-13.48566406 14.26007812 -12.97132812 13.52015625 -12.44140625 12.7578125 C-11.01223042 10.79037564 -9.53043461 8.88932359 -8 7 C-7.53207031 6.40960937 -7.06414063 5.81921875 -6.58203125 5.2109375 C-2.37129739 0 -2.37129739 0 0 0 Z " fill="#B2DFE8" transform="translate(41,12)"/>
<path d="M0 0 C0.66 0 1.32 0 2 0 C2 1.98 2 3.96 2 6 C2.845625 6.04125 3.69125 6.0825 4.5625 6.125 C10.05976001 7.52430255 13.44263356 10.41477171 16.3671875 15.26953125 C19.13939541 21.33971064 19.60236688 26.5237672 18 33 C16.4375 36.625 16.4375 36.625 15 39 C14.67 39 14.34 39 14 39 C13.91363281 38.443125 13.82726563 37.88625 13.73828125 37.3125 C12.43628305 30.24109694 9.47363377 25.50233242 5.375 19.69921875 C1.05650928 13.19033971 0.02672046 7.77565475 0 0 Z " fill="#0697B7" transform="translate(40,11)"/>
<path d="M0 0 C-0.825 0.86625 -1.65 1.7325 -2.5 2.625 C-9.77558542 11.20289784 -15.37627224 20.47666252 -15 32 C-18.1355826 29.06671305 -19.76262427 27.19086125 -20.23828125 22.80078125 C-20.45051134 15.68548809 -19.30679342 10.52620152 -14.3515625 5.2421875 C-9.88458739 1.20435411 -6.11467788 -1.76360183 0 0 Z " fill="#0797B8" transform="translate(36,17)"/>
<path d="M0 0 C4.32862544 0.73239216 6.03005939 2.71682918 8.73828125 6.01171875 C10.65438882 9.03121953 10.85544936 11.45850926 11 15 C10.01 15.495 10.01 15.495 9 16 C5.40473961 10.9400039 2.69319824 5.58507504 0 0 Z " fill="#14A0BE" transform="translate(42,23)"/>
<path d="M0 0 C2.04219706 1.69179328 2.91793306 2.63727666 3.51171875 5.26171875 C3.56972656 6.06222656 3.62773438 6.86273438 3.6875 7.6875 C3.75324219 8.49574219 3.81898437 9.30398437 3.88671875 10.13671875 C3.92410156 10.75160156 3.96148437 11.36648437 4 12 C2.35 12.33 0.7 12.66 -1 13 C-2.51403812 8.15507803 -1.36602172 4.7408989 0 0 Z " fill="#29A7C2" transform="translate(46,37)"/>
<path d="M0 0 C0.66 0.33 1.32 0.66 2 1 C0.75796305 2.46512126 -0.49397056 3.92185645 -1.75 5.375 C-2.44609375 6.18710938 -3.1421875 6.99921875 -3.859375 7.8359375 C-5.85949643 9.85795807 -7.39531129 10.93231229 -10 12 C-7.75066455 6.93899525 -4.58147862 3.10886049 0 0 Z " fill="#156D91" transform="translate(16,6)"/>
<path d="M0 0 C0 2.31 0 4.62 0 7 C-0.66 6.01 -1.32 5.02 -2 4 C-4.64 6.64 -7.28 9.28 -10 12 C-10 8.26071501 -9.08040398 7.59097747 -6.625 4.875 C-5.99851562 4.17117187 -5.37203125 3.46734375 -4.7265625 2.7421875 C-2.00896861 0 -2.00896861 0 0 0 Z " fill="#95D1DF" transform="translate(41,12)"/>
</svg>
