<?xml version="1.0" encoding="UTF-8"?>
<svg version="1.1" xmlns="http://www.w3.org/2000/svg" width="75" height="74">
<path d="M0 0 C7.34173727 5.23280017 12.7894157 13.073612 14.91015625 21.84765625 C16.55102997 32.40978514 15.2606962 41.99666381 9.6171875 51.203125 C3.42036891 59.58262868 -5.36616865 65.46454409 -15.6875 67.4375 C-27.20619569 68.62605331 -37.10588291 66.05604037 -46.55078125 59.32421875 C-54.41819116 52.37731018 -58.88406008 43.91254227 -59.99609375 33.56640625 C-60.47427178 22.42340917 -57.25674432 13.06623694 -49.95703125 4.62890625 C-35.68288503 -9.15387521 -16.63394003 -9.8097595 0 0 Z " fill="#DA252C" transform="translate(59.6875,6.5625)"/>
<path d="M0 0 C10.68351064 -0.62234043 10.68351064 -0.62234043 15.4375 1.625 C18.27951134 4.25905929 20.63172514 6.93517371 23 10 C23 9.34 23 8.68 23 8 C23.33 7.34 23.66 6.68 24 6 C27.43678585 10.98888269 29.46009277 14.60573895 29.42578125 20.8046875 C28.61448291 24.98771195 25.70213711 27.8428398 23 31 C22.34 31.99 21.68 32.98 21 34 C23.64 32.68 26.28 31.36 29 30 C27.86105812 34.55576751 26.37225486 35.88066425 23 39 C22.67 39.33 22.34 39.66 22 40 C20.15108054 40.23363881 18.29511969 40.41303635 16.4375 40.5625 C15.42558594 40.64628906 14.41367187 40.73007812 13.37109375 40.81640625 C12.19740234 40.90728516 12.19740234 40.90728516 11 41 C10.67 41.99 10.34 42.98 10 44 C11.98 44 13.96 44 16 44 C12.18983879 47.81016121 6.15506664 47.22803538 1 47.375 C-6.55619912 47.32717595 -6.55619912 47.32717595 -9.75 44.75 C-13.16988429 40.57014142 -14.69617646 37.80579396 -14.484375 32.171875 C-13.67006453 28.52061192 -11.95376706 26.17398477 -9.3984375 23.48828125 C-5.41838561 21.01857479 -1.58489205 21.60968836 2.9609375 21.91796875 C6.67629874 22.01825485 8.90775267 21.00578205 12 19 C12.66 19 13.32 19 14 19 C13.49697411 23.40147657 11.97554199 25.75395419 9 29 C8.34 29.33 7.68 29.66 7 30 C7 30.99 7 31.98 7 33 C10.93075644 32.42547254 10.93075644 32.42547254 14 30 C14.37723556 27.66371161 14.505155 25.35695314 14.65625 22.99609375 C14.7696875 22.33738281 14.883125 21.67867187 15 21 C15.66 20.67 16.32 20.34 17 20 C17.33 21.65 17.66 23.3 18 25 C18.99 22.69 19.98 20.38 21 18 C19.88625 17.9071875 19.88625 17.9071875 18.75 17.8125 C15.1814261 16.75814862 14.07754772 15.00090227 12 12 C12.33 11.34 12.66 10.68 13 10 C13.66 10.66 14.32 11.32 15 12 C15 10.02 15 8.04 15 6 C8.565 6.495 8.565 6.495 2 7 C3.32 6.34 4.64 5.68 6 5 C5.67 4.01 5.34 3.02 5 2 C2.525 1.505 2.525 1.505 0 1 C0 0.67 0 0.34 0 0 Z " fill="#F7B6B7" transform="translate(30,14)"/>
<path d="M0 0 C2.97 0 5.94 0 9 0 C9.33 1.32 9.66 2.64 10 4 C10.99 3.67 11.98 3.34 13 3 C13.5775 3.804375 14.155 4.60875 14.75 5.4375 C16.98126893 7.97866739 17.74456771 8.65120368 21 9 C20.50168276 12.68754757 19.89932357 14.60490662 17 17 C16.67 15.35 16.34 13.7 16 12 C15.97421875 12.60328125 15.9484375 13.2065625 15.921875 13.828125 C15.64586427 17.71736714 15.44561168 20.33158248 13.25 23.625 C11 25 11 25 8.25 24.75 C7.5075 24.5025 6.765 24.255 6 24 C6.47548556 19.72062994 9.06417851 17.93582149 12 15 C13.319018 12.33466965 13.319018 12.33466965 14 10 C13.52691406 10.30035156 13.05382812 10.60070313 12.56640625 10.91015625 C7.03348899 14.09185331 3.19506878 14.3193202 -3 13 C-2.62403791 10.21788056 -2.32681541 8.4120716 -0.5625 6.1875 C1 5 1 5 3 5 C2.01 3.35 1.02 1.7 0 0 Z " fill="#EE5551" transform="translate(30,23)"/>
<path d="M0 0 C0.33 2.31 0.66 4.62 1 7 C0.01 6.34 -0.98 5.68 -2 5 C-2.33 5.66 -2.66 6.32 -3 7 C-3.66 7 -4.32 7 -5 7 C-5.33 6.01 -5.66 5.02 -6 4 C-8.64 4 -11.28 4 -14 4 C-13.34 5.32 -12.68 6.64 -12 8 C-13.375 9.5 -13.375 9.5 -15 11 C-15.66 11 -16.32 11 -17 11 C-17.33 12.65 -17.66 14.3 -18 16 C-19.98 16.66 -21.96 17.32 -24 18 C-23.85892253 16.54119891 -23.71197585 15.08296449 -23.5625 13.625 C-23.48128906 12.81289063 -23.40007813 12.00078125 -23.31640625 11.1640625 C-23 9 -23 9 -22 7 C-21.34 7 -20.68 7 -20 7 C-19.67 6.01 -19.34 5.02 -19 4 C-18.34 4 -17.68 4 -17 4 C-17 3.34 -17 2.68 -17 2 C-15.10787298 1.46585888 -13.21108364 0.94821671 -11.3125 0.4375 C-10.25675781 0.14746094 -9.20101562 -0.14257812 -8.11328125 -0.44140625 C-4.99304618 -1.00124767 -3.02306766 -0.84690764 0 0 Z " fill="#EC3334" transform="translate(45,20)"/>
<path d="M0 0 C1.00289062 0.28746094 2.00578125 0.57492188 3.0390625 0.87109375 C3.80992188 1.09925781 4.58078125 1.32742187 5.375 1.5625 C4.09674272 4.43411984 3.4632536 5.50007672 0.8125 7.375 C-3.63931261 8.9128989 -7.06520444 8.40352896 -11.625 7.5625 C-11.12733954 3.87981261 -10.56214041 1.91221233 -7.625 -0.4375 C-4.72405209 -1.88797396 -3.06527404 -0.89106803 0 0 Z " fill="#F0554A" transform="translate(38.625,28.4375)"/>
<path d="M0 0 C-0.50298788 4.40114397 -2.08772731 6.71195019 -5 10 C-7.375 9.8125 -7.375 9.8125 -10 9 C-11.3125 6.4375 -11.3125 6.4375 -12 4 C-11.16855469 3.69255859 -11.16855469 3.69255859 -10.3203125 3.37890625 C-9.59585938 3.10949219 -8.87140625 2.84007812 -8.125 2.5625 C-7.40570313 2.29566406 -6.68640625 2.02882812 -5.9453125 1.75390625 C-1.41968912 0 -1.41968912 0 0 0 Z " fill="#F8C8C6" transform="translate(44,33)"/>
<path d="M0 0 C0.66 0 1.32 0 2 0 C2.48430493 7.26457399 2.48430493 7.26457399 0.3125 10.5625 C-2 12 -2 12 -4.75 11.75 C-5.4925 11.5025 -6.235 11.255 -7 11 C-6.52648061 6.73832553 -3.99978097 4.84979192 -1 2 C-0.67 1.34 -0.34 0.68 0 0 Z " fill="#EF6D66" transform="translate(43,36)"/>
<path d="M0 0 C0 1.32 0 2.64 0 4 C-0.61875 4.28875 -1.2375 4.5775 -1.875 4.875 C-4.13325765 5.93720042 -4.13325765 5.93720042 -6 8 C-6 7.34 -6 6.68 -6 6 C-7.65 6.66 -9.3 7.32 -11 8 C-6.17527933 -0.50069832 -6.17527933 -0.50069832 0 0 Z " fill="#F6B6B7" transform="translate(27,16)"/>
<path d="M0 0 C0.99 0.66 1.98 1.32 3 2 C3 4 3 4 1.625 5.625 C0 7 0 7 -2 7 C-2.33 8.65 -2.66 10.3 -3 12 C-3.99 12 -4.98 12 -6 12 C-6.125 7.25 -6.125 7.25 -5 5 C-4.34 5 -3.68 5 -3 5 C-2.67 4.01 -2.34 3.02 -2 2 C-1.34 2 -0.68 2 0 2 C0 1.34 0 0.68 0 0 Z " fill="#EE3B38" transform="translate(30,24)"/>
<path d="M0 0 C2.375 -0.1875 2.375 -0.1875 5 0 C5.66 0.99 6.32 1.98 7 3 C1.67993436 6.41029848 -2.05542387 6.09644404 -8 5 C-8 4.67 -8 4.34 -8 4 C-6.02 4 -4.04 4 -2 4 C-2 3.34 -2 2.68 -2 2 C-1.34 2 -0.68 2 0 2 C0 1.34 0 0.68 0 0 Z " fill="#F06A5A" transform="translate(35,31)"/>
<path d="M0 0 C2.97 0 5.94 0 9 0 C9.33 1.32 9.66 2.64 10 4 C8.02 4.33 6.04 4.66 4 5 C2.68 3.35 1.36 1.7 0 0 Z " fill="#F5ACAC" transform="translate(30,23)"/>
<path d="M0 0 C0.33 0 0.66 0 1 0 C1.22732116 2.80362763 1.34081872 4.46186517 -0.1875 6.875 C-2 8 -2 8 -4.6875 7.6875 C-5.450625 7.460625 -6.21375 7.23375 -7 7 C-6.01 6.67 -5.02 6.34 -4 6 C-2.79117904 3.99983534 -2.79117904 3.99983534 -2 2 C-1.34 2 -0.68 2 0 2 C0 1.34 0 0.68 0 0 Z " fill="#EF5149" transform="translate(43,40)"/>
<path d="M0 0 C0.66 0.33 1.32 0.66 2 1 C-1.63 4.63 -5.26 8.26 -9 12 C-9 7.8407692 -6.75316432 5.85455565 -4 3 C-1.6875 1.125 -1.6875 1.125 0 0 Z " fill="#DD585C" transform="translate(16,6)"/>
<path d="M0 0 C0.66 0.66 1.32 1.32 2 2 C1.360625 2.61875 0.72125 3.2375 0.0625 3.875 C-2.03883584 5.82597612 -2.03883584 5.82597612 -3 8 C-3.99 7.67 -4.98 7.34 -6 7 C-4.52307692 2.32307692 -4.52307692 2.32307692 -1.875 0.6875 C-1.25625 0.460625 -0.6375 0.23375 0 0 Z " fill="#EE4843" transform="translate(33,27)"/>
<path d="M0 0 C-0.61875 0.2475 -1.2375 0.495 -1.875 0.75 C-4.14291141 1.81460222 -4.14291141 1.81460222 -4.9375 4 C-6.39836667 6.74986668 -8.11305462 7.08833304 -11 8 C-6.17527933 -0.50069832 -6.17527933 -0.50069832 0 0 Z " fill="#F19A9B" transform="translate(27,16)"/>
</svg>
