<?xml version="1.0" encoding="UTF-8"?>
<svg version="1.1" xmlns="http://www.w3.org/2000/svg" width="74" height="74">
<path d="M0 0 C8.59544807 6.23863166 13.95827299 13.72376222 17.0625 23.8125 C18.13761298 34.83240804 16.67241756 44.06286103 10.1015625 53.20703125 C2.63499598 62.25494483 -6.01568276 67.22269365 -17.6875 68.61328125 C-27.55200629 68.97934691 -37.1984239 65.87454355 -44.6875 59.41796875 C-52.59031987 51.34536174 -56.65477153 42.78548316 -57.125 31.5 C-56.76227113 19.72642552 -52.19491525 10.78208065 -43.9140625 2.62890625 C-31.53646341 -7.84243813 -13.53843393 -8.38870261 0 0 Z " fill="#9B7F4D" transform="translate(56.6875,5.625)"/>
<path d="M0 0 C6.1103052 4.53382344 8.85994687 9.49465025 10 17 C10.20862259 21.01598483 10.18631391 24.98390023 10 29 C4.39094242 21.92551297 -0.05908012 14.17869435 1 5 C-3.29 5 -7.58 5 -12 5 C-12 5.99 -12 6.98 -12 8 C-10.68 8.33 -9.36 8.66 -8 9 C-8.165 9.7425 -8.33 10.485 -8.5 11.25 C-9.11925696 14.19006578 -9.11925696 14.19006578 -9 18 C-8.2575 18.391875 -7.515 18.78375 -6.75 19.1875 C-2.67231442 21.8750655 -1.46145807 25.44368954 0 30 C0.64253467 34.17647535 0.42872144 35.38371292 -2 38.875 C-2.66 39.57625 -3.32 40.2775 -4 41 C-1.69 40.67 0.62 40.34 3 40 C-1.40093025 44.95104653 -5.94802073 48.46839922 -12.6796875 49.3515625 C-20.20697174 49.58092573 -25.88409229 48.16205841 -32.0625 43.875 C-35.44130743 41.71831441 -38.04154692 41.31667625 -42 41 C-41.67 40.34 -41.34 39.68 -41 39 C-38.69 39 -36.38 39 -34 39 C-34.66 38.01 -35.32 37.02 -36 36 C-36.57743146 31.1495757 -35.26559867 27.41409786 -33.55859375 22.953125 C-32.74610868 20.94451654 -32.74610868 20.94451654 -34 19 C-33.01 18.67 -32.02 18.34 -31 18 C-30.67 17.34 -30.34 16.68 -30 16 C-26.42468318 17.42251967 -25.13870921 18.92731619 -23.375 22.3125 C-22.76785156 23.45138672 -22.76785156 23.45138672 -22.1484375 24.61328125 C-19.98680012 29.1056637 -18.73673179 32.80854362 -18.375 37.8125 C-18.30023438 38.78832031 -18.22546875 39.76414063 -18.1484375 40.76953125 C-18.07496094 41.87361328 -18.07496094 41.87361328 -18 43 C-16.515 43.495 -16.515 43.495 -15 44 C-14.731875 43.38125 -14.46375 42.7625 -14.1875 42.125 C-13 40 -13 40 -10 38 C-10.48484276 33.35413108 -10.48484276 33.35413108 -12 29 C-12.25797575 25.04437178 -12.09440189 22.40340307 -10 19 C-10.86625 19.185625 -11.7325 19.37125 -12.625 19.5625 C-16 19 -16 19 -17.69921875 17.13671875 C-20.23285667 13.38840696 -21.89257253 10.4297099 -23 6 C-27.62 6 -32.24 6 -37 6 C-34.89363101 1.78726201 -34.02404969 1.06284173 -30.125 -1.1875 C-29.26132812 -1.69667969 -28.39765625 -2.20585937 -27.5078125 -2.73046875 C-18.21885077 -7.43282477 -8.38669747 -5.62923135 0 0 Z " fill="#D6B574" transform="translate(53,15)"/>
<path d="M0 0 C8.69857183 5.52456628 15.33353733 12.38504913 18.26953125 22.44140625 C19.2223838 29.50071172 19.38686347 36.91763438 16.26953125 43.44140625 C12.39453125 41.69140625 12.39453125 41.69140625 11.26953125 39.44140625 C11.16473763 37.27567146 11.08549149 35.10867138 11.01953125 32.94140625 C10.40563847 23.98956673 8.01010986 17.66988243 1.39453125 11.50390625 C-4.71721151 6.67824716 -10.12389185 4.85504835 -17.8828125 5.08984375 C-25.10343165 5.98127821 -31.155842 8.6904469 -35.73046875 14.44140625 C-40.6034335 21.52178238 -41.94198576 26.90553752 -42.16015625 35.4609375 C-42.35835407 39.89561379 -42.93704398 42.9324244 -45.73046875 46.44140625 C-46.39046875 46.44140625 -47.05046875 46.44140625 -47.73046875 46.44140625 C-51.35243605 37.53740331 -52.49640282 28.41633343 -49.16796875 19.19140625 C-44.81274197 9.84360242 -38.9730721 3.97355098 -29.73046875 -0.55859375 C-28.97378906 -0.93371094 -28.21710937 -1.30882812 -27.4375 -1.6953125 C-19.27814403 -4.2973582 -7.70584941 -3.76759588 0 0 Z " fill="#150E0A" transform="translate(52.73046875,5.55859375)"/>
<path d="M0 0 C4.62 0 9.24 0 14 0 C15.2684375 2.660625 15.2684375 2.660625 16.5625 5.375 C18.61635314 9.36846214 18.61635314 9.36846214 21.95703125 12.17578125 C24.05153895 12.7895126 24.05153895 12.7895126 27 13 C26.85691406 14.01320313 26.85691406 14.01320313 26.7109375 15.046875 C26.54464844 16.38492188 26.54464844 16.38492188 26.375 17.75 C26.25898437 18.63171875 26.14296875 19.5134375 26.0234375 20.421875 C25.99757215 23.26706369 26.60362738 24.5706231 28 27 C28.4375 29.5 28.4375 29.5 28 32 C25.5625 34.1875 25.5625 34.1875 23 36 C22.67 36.66 22.34 37.32 22 38 C20.68 37.67 19.36 37.34 18 37 C17.97421875 36.31035156 17.9484375 35.62070312 17.921875 34.91015625 C17.359498 25.59259193 14.58499185 18.4466558 9 11 C8.34 10.67 7.68 10.34 7 10 C6.67 10.99 6.34 11.98 6 13 C4.68 12.67 3.36 12.34 2 12 C2.48578543 8.87709365 2.9986012 6.00419641 4 3 C2.68 2.67 1.36 2.34 0 2 C0 1.34 0 0.68 0 0 Z " fill="#16100A" transform="translate(16,21)"/>
<path d="M0 0 C1.8491441 1.13662986 3.51051681 2.43115454 5.23046875 3.75390625 C10.83648719 7.70163226 18.40801902 7.90954929 25 7 C29.49801042 5.34704262 33.59289911 3.40710089 37 0 C39.1640625 0.0234375 39.1640625 0.0234375 41.625 0.375 C42.44226562 0.48585937 43.25953125 0.59671875 44.1015625 0.7109375 C44.72804687 0.80632813 45.35453125 0.90171875 46 1 C43.18393259 7.31234433 37.31500659 11.72947418 30.97265625 14.296875 C20.19558712 16.84598465 8.95236174 16.36684367 -0.6640625 10.65625 C-3.56517723 8.59927233 -5.84889315 6.84253406 -8 4 C-8 3.01 -8 2.02 -8 1 C-5.08225221 -0.45887389 -3.25271895 -0.36823233 0 0 Z " fill="#140D09" transform="translate(18,56)"/>
<path d="M0 0 C4.29 0 8.58 0 13 0 C13.020625 1.03125 13.04125 2.0625 13.0625 3.125 C13.7441087 8.8423745 16.65307032 13.62499377 19.28515625 18.640625 C20.65882276 21.33163457 21.81179973 23.90863342 22.8125 26.75 C23.75399981 30.03499083 23.75399981 30.03499083 26 32 C26 32.99 26 33.98 26 35 C25.20335938 34.98839844 24.40671875 34.97679687 23.5859375 34.96484375 C15.74521011 34.88148443 15.74521011 34.88148443 8 36 C9.875 32.125 9.875 32.125 11 31 C11.9333423 24.93327505 9.23885633 19.96332848 6 15 C3.41968631 12.85647997 3.41968631 12.85647997 1 12 C1.33 11.4225 1.66 10.845 2 10.25 C3.27075898 7.80116138 3.27075898 7.80116138 3 4 C2.01 3.67 1.02 3.34 0 3 C0 2.01 0 1.02 0 0 Z " fill="#17100B" transform="translate(41,20)"/>
<path d="M0 0 C3.57531682 1.42251967 4.86129079 2.92731619 6.625 6.3125 C7.23214844 7.45138672 7.23214844 7.45138672 7.8515625 8.61328125 C9.97769161 13.03186931 11.25911127 16.70582924 11.625 21.625 C11.69976562 22.56601562 11.77453125 23.50703125 11.8515625 24.4765625 C11.95971734 26.31519479 12 28.15818943 12 30 C5.40720754 27.7033305 -1.16017431 25.23330746 -6 20 C-7.13149963 15.37113787 -5.21728323 11.2878335 -3.55859375 6.953125 C-2.74610868 4.94451654 -2.74610868 4.94451654 -4 3 C-3.01 2.67 -2.02 2.34 -1 2 C-0.67 1.34 -0.34 0.68 0 0 Z " fill="#D9B876" transform="translate(23,31)"/>
<path d="M0 0 C6.1103052 4.53382344 8.85994687 9.49465025 10 17 C10.20862259 21.01598483 10.18631391 24.98390023 10 29 C4.39094242 21.92551297 -0.05908012 14.17869435 1 5 C-1.31 5 -3.62 5 -6 5 C-5.34 4.34 -4.68 3.68 -4 3 C-11.86883163 -0.37235641 -17.4618793 -1.18128439 -25.5 2 C-27.00592508 2.65317233 -28.50817784 3.31522917 -30 4 C-27.03 4.495 -27.03 4.495 -24 5 C-24 5.33 -24 5.66 -24 6 C-28.29 6 -32.58 6 -37 6 C-34.89363101 1.78726201 -34.02404969 1.06284173 -30.125 -1.1875 C-29.26132812 -1.69667969 -28.39765625 -2.20585937 -27.5078125 -2.73046875 C-18.21885077 -7.43282477 -8.38669747 -5.62923135 0 0 Z " fill="#BE9F64" transform="translate(53,15)"/>
<path d="M0 0 C0.33 0.66 0.66 1.32 1 2 C-3.455 2.495 -3.455 2.495 -8 3 C-8 3.99 -8 4.98 -8 6 C-6.68 6.33 -5.36 6.66 -4 7 C-5.04347826 13.26086957 -5.04347826 13.26086957 -7 16 C-9.578125 16.609375 -9.578125 16.609375 -12 17 C-12.96125903 15.58531689 -13.91888325 14.1681636 -14.875 12.75 C-15.40867187 11.96109375 -15.94234375 11.1721875 -16.4921875 10.359375 C-18 8 -18 8 -18.96875 5.75 C-19.3090625 5.1725 -19.649375 4.595 -20 4 C-23.56206661 3.18129815 -23.56206661 3.18129815 -27 3 C-19.62235905 -5.10405483 -9.16830464 -4.18203369 0 0 Z " fill="#DBBA77" transform="translate(49,17)"/>
<path d="M0 0 C8.59544807 6.23863166 13.95827299 13.72376222 17.0625 23.8125 C17.69760827 30.32235976 17.89526675 36.24092898 15.3125 42.375 C14.6525 42.375 13.9925 42.375 13.3125 42.375 C13.38210937 41.07046875 13.45171875 39.7659375 13.5234375 38.421875 C13.97489798 26.42428413 13.47867154 17.46903354 5.26171875 8.015625 C-3.02631168 -0.05158757 -11.30613948 -2.14895792 -22.55053711 -2.04101562 C-27.87268747 -1.85437845 -31.96746826 -1.03522897 -36.6875 1.375 C-35.70245797 -1.23024777 -35.14946225 -2.39096241 -32.62109375 -3.671875 C-21.14035527 -6.90588584 -10.40188039 -6.44522709 0 0 Z " fill="#967B4A" transform="translate(56.6875,5.625)"/>
<path d="M0 0 C2.72602159 1.47996882 5.35176847 2.54968819 8.3671875 3.28515625 C9.3571875 2.95515625 10.3471875 2.62515625 11.3671875 2.28515625 C12.3159375 2.32640625 13.2646875 2.36765625 14.2421875 2.41015625 C17.88996328 2.26424522 19.29606711 1.15779063 22.3671875 -0.71484375 C26.1796875 -1.40234375 26.1796875 -1.40234375 29.3671875 -1.71484375 C24.96625725 3.23620278 20.41916677 6.75355547 13.6875 7.63671875 C6.16021576 7.86608198 0.48309521 6.44721466 -5.6953125 2.16015625 C-9.07411993 0.00347066 -11.67435942 -0.3981675 -15.6328125 -0.71484375 C-15.3028125 -1.37484375 -14.9728125 -2.03484375 -14.6328125 -2.71484375 C-8.62223853 -4.63311204 -5.39594537 -2.94398843 0 0 Z " fill="#B4975E" transform="translate(26.6328125,56.71484375)"/>
<path d="M0 0 C2.91401118 4.37101676 2.44139669 8.59352053 2.65625 13.75 C2.76106824 17.14438396 2.76106824 17.14438396 5 20 C7.58380177 20.25030977 7.58380177 20.25030977 10 20 C7.58105471 29.67578118 0.10987825 37.23674756 -8.20703125 42.359375 C-15.68205703 45.97912214 -22.99443026 44.98201655 -31 44 C-31 43.67 -31 43.34 -31 43 C-30.05640625 42.99742188 -29.1128125 42.99484375 -28.140625 42.9921875 C-18.15414369 42.69138987 -9.53062368 41.20774358 -1.92578125 34.046875 C-0.0765323 31.98615962 -0.0765323 31.98615962 2 29 C0.700625 28.87625 -0.59875 28.7525 -1.9375 28.625 C-4.15234375 28.4140625 -4.15234375 28.4140625 -6 28 C-6.33 27.34 -6.66 26.68 -7 26 C-5.56260487 25.97287934 -4.12506137 25.95354933 -2.6875 25.9375 C-1.48673828 25.92009766 -1.48673828 25.92009766 -0.26171875 25.90234375 C2 26 2 26 5 27 C4.45859375 26.33871094 4.45859375 26.33871094 3.90625 25.6640625 C-1.55284102 17.74838052 -0.44624933 9.19273629 0 0 Z " fill="#8E7546" transform="translate(62,28)"/>
<path d="M0 0 C1.32 0.66 2.64 1.32 4 2 C3.67515625 2.87011719 3.67515625 2.87011719 3.34375 3.7578125 C1.29957939 9.49284673 0.01032364 14.03097093 2 20 C-1.96 20.66 -5.92 21.32 -10 22 C-9.34 20.68 -8.68 19.36 -8 18 C-7.36133756 16.4221281 -6.7370799 14.83837264 -6.125 13.25 C-4.32360994 8.68557556 -2.25815675 4.35501659 0 0 Z " fill="#1C150D" transform="translate(17,34)"/>
<path d="M0 0 C1.65 0.99 3.3 1.98 5 3 C4.91266424 4.60517097 4.80447776 6.20921662 4.6875 7.8125 C4.62949219 8.70582031 4.57148438 9.59914063 4.51171875 10.51953125 C3.92046303 13.38554182 3.12470366 14.08776671 1 16 C0.02284391 17.80190614 0.02284391 17.80190614 -0.6875 19.6875 C-1.120625 20.780625 -1.55375 21.87375 -2 23 C-2.66 22.67 -3.32 22.34 -4 22 C-4.738041 6.07061503 -4.738041 6.07061503 0 0 Z " fill="#C2A367" transform="translate(15,21)"/>
<path d="M0 0 C4.23862616 3.48172863 6.23702046 7.90798994 8 13 C8 13.99 8 14.98 8 16 C7.34 16 6.68 16 6 16 C3.69 11.05 1.38 6.1 -1 1 C-0.67 0.67 -0.34 0.34 0 0 Z " fill="#9B7F4C" transform="translate(65,14)"/>
<path d="M0 0 C1.45823212 -0.0270043 2.91660675 -0.04639787 4.375 -0.0625 C5.18710937 -0.07410156 5.99921875 -0.08570313 6.8359375 -0.09765625 C9 0 9 0 11 1 C11 1.66 11 2.32 11 3 C7.7 3 4.4 3 1 3 C0.67 2.01 0.34 1.02 0 0 Z " fill="#8E7545" transform="translate(32,0)"/>
<path d="M0 0 C0.66 0.33 1.32 0.66 2 1 C0.68 2.32 -0.64 3.64 -2 5 C0.97 5.33 3.94 5.66 7 6 C7 6.33 7 6.66 7 7 C2.71 7 -1.58 7 -6 7 C-4.11656068 3.23312136 -3.30867531 2.20578354 0 0 Z " fill="#8C7446" transform="translate(22,14)"/>
<path d="M0 0 C1.4370809 -0.05422947 2.87475462 -0.09289723 4.3125 -0.125 C5.11300781 -0.14820313 5.91351563 -0.17140625 6.73828125 -0.1953125 C9 0 9 0 12 2 C11.34 2 10.68 2 10 2 C9.67 2.99 9.34 3.98 9 5 C9 4.34 9 3.68 9 3 C7.700625 2.87625 6.40125 2.7525 5.0625 2.625 C2.84765625 2.4140625 2.84765625 2.4140625 1 2 C0.67 1.34 0.34 0.68 0 0 Z " fill="#856D41" transform="translate(55,54)"/>
<path d="M0 0 C2.83374881 3.20336822 3.5205537 5.78087253 4 10 C3.01 10.495 3.01 10.495 2 11 C0.19769832 7.17010894 -0.19622241 4.21878192 0 0 Z " fill="#CAAA6C" transform="translate(55,23)"/>
<path d="M0 0 C2.5654594 2.5654594 2.54046087 4.47686668 3 8 C2.34 8 1.68 8 1 8 C0.34 5.69 -0.32 3.38 -1 1 C-0.67 0.67 -0.34 0.34 0 0 Z " fill="#A38755" transform="translate(70,22)"/>
</svg>
